<svg width="1200" height="760" viewBox="0 0 1200 760" fill="none" xmlns="http://www.w3.org/2000/svg">
  <defs>
    <linearGradient id="bg1" x1="70" y1="84" x2="1092" y2="690" gradientUnits="userSpaceOnUse">
      <stop stop-color="#0A0F16"/>
      <stop offset="0.45" stop-color="#162738"/>
      <stop offset="1" stop-color="#0D1118"/>
    </linearGradient>
    <linearGradient id="vespa1" x1="276" y1="268" x2="928" y2="572" gradientUnits="userSpaceOnUse">
      <stop stop-color="#F9E5B5"/>
      <stop offset="0.28" stop-color="#D9A555"/>
      <stop offset="0.7" stop-color="#2F6FAD"/>
      <stop offset="1" stop-color="#183B5D"/>
    </linearGradient>
    <radialGradient id="glow1" cx="0" cy="0" r="1" gradientUnits="userSpaceOnUse" gradientTransform="translate(588 266) rotate(90) scale(300 460)">
      <stop stop-color="#F9D98D" stop-opacity="0.8"/>
      <stop offset="1" stop-color="#F9D98D" stop-opacity="0"/>
    </radialGradient>
  </defs>
  <rect width="1200" height="760" rx="40" fill="url(#bg1)"/>
  <circle cx="620" cy="260" r="282" fill="url(#glow1)"/>
  <g opacity="0.5">
    <circle cx="257" cy="178" r="110" fill="#2F6FAD" fill-opacity="0.3"/>
    <circle cx="946" cy="164" r="135" fill="#D8A445" fill-opacity="0.2"/>
    <circle cx="870" cy="579" r="166" fill="#2F6FAD" fill-opacity="0.25"/>
  </g>
  <g opacity="0.9">
    <path d="M252 524C265 452 315 399 399 381L568 348C622 337 684 342 732 369L836 430C885 460 904 516 883 564L854 635H235C205 617 214 548 252 524Z" fill="url(#vespa1)"/>
    <path d="M415 363C437 293 486 241 560 214C617 193 687 196 744 224C794 250 823 296 823 349L730 355L604 349L415 363Z" fill="#F6F2E8"/>
    <path d="M542 230C583 229 633 238 677 267C720 295 741 337 748 382L639 391L510 388L481 343C482 299 502 256 542 230Z" fill="#0B1117" fill-opacity="0.86"/>
    <path d="M332 370L260 242C245 217 256 185 283 173L364 133" stroke="#F6F2E8" stroke-width="18" stroke-linecap="round"/>
    <path d="M712 255L773 163C786 145 808 141 823 156L865 195" stroke="#F6F2E8" stroke-width="16" stroke-linecap="round"/>
    <path d="M216 522H153C128 522 110 540 110 565V576H252" stroke="#D8A445" stroke-width="18" stroke-linecap="round"/>
  </g>
  <g opacity="0.88">
    <circle cx="304" cy="592" r="82" fill="#0F1720" stroke="#F5D58A" stroke-width="15"/>
    <circle cx="304" cy="592" r="34" fill="#E8E7E3" stroke="#D8A445" stroke-width="8"/>
    <circle cx="818" cy="592" r="84" fill="#0F1720" stroke="#F5D58A" stroke-width="15"/>
    <circle cx="818" cy="592" r="34" fill="#E8E7E3" stroke="#D8A445" stroke-width="8"/>
  </g>
  <g opacity="0.9">
    <rect x="87" y="90" width="160" height="40" rx="20" fill="#F6F2E8" fill-opacity="0.08" stroke="#F6F2E8" stroke-opacity="0.25"/>
    <text x="110" y="116" fill="#F6F2E8" font-family="Arial, sans-serif" font-size="18" font-weight="700" letter-spacing="2">AI GARAGE</text>
  </g>
</svg>
